<?xml version="1.0" encoding="utf-8"?>
<!-- Generator: Adobe Illustrator 19.2.0, SVG Export Plug-In . SVG Version: 6.00 Build 0)  -->
<svg version="1.1" id="Layer_1" xmlns="http://www.w3.org/2000/svg" xmlns:xlink="http://www.w3.org/1999/xlink" x="0px" y="0px"
	 viewBox="0 0 595.6 120" style="enable-background:new 0 0 595.6 120;" xml:space="preserve">
<path style="fill:#010101;" d="M159.9,43.2l0.2,0.1l-0.4,9.1l-0.3-0.1c-0.6-0.2-1.3-0.3-1.9-0.4c-0.6-0.1-1.3-0.2-1.9-0.2
	c-3.8,0-6.8,1.1-8.8,3.2c-2,2.1-3,5.5-3,10.1v21.4h-8.5V43.8h8.5v6.1c0.5-0.9,1.1-1.8,1.9-2.6c0.9-0.9,1.9-1.7,3-2.4
	c1.1-0.7,2.3-1.2,3.7-1.6C154.9,42.5,157.7,42.5,159.9,43.2z M203.6,57.1c0.7,2.7,1.1,5.4,1.1,8.1v3.1h-33.8c0,1.7,0.4,3.3,1.2,4.7
	c0.8,1.5,1.8,2.8,3.1,3.8c1.3,1,2.8,1.9,4.5,2.4c1.7,0.6,3.5,0.9,5.3,0.9c2.4,0,4.6-0.6,6.4-1.7c1.8-1.1,3.5-2.7,5-4.5l0.2-0.2
	l6.4,4.9l-0.2,0.2c-4.5,5.8-10.8,8.7-18.9,8.7c-3.3,0-6.4-0.6-9.1-1.7c-2.7-1.1-5.1-2.7-6.9-4.7c-1.9-2-3.4-4.4-4.4-7.1
	c-1-2.7-1.5-5.7-1.5-8.9c0-3.2,0.6-6.1,1.7-8.9c1.1-2.7,2.6-5.1,4.6-7.1c1.9-2,4.3-3.6,7-4.7c2.7-1.1,5.7-1.7,8.8-1.7
	c3.8,0,7,0.7,9.6,2c2.6,1.3,4.8,3.1,6.4,5.2C201.6,52,202.8,54.4,203.6,57.1z M178.4,50.7c-1.6,0.7-3,1.7-4.1,2.8
	c-1.1,1.2-2,2.5-2.6,3.9c-0.6,1.3-0.9,2.7-0.9,4h24.8c-0.1-1.6-0.4-3.2-0.8-4.6c-0.5-1.4-1.2-2.7-2.2-3.8c-1-1.1-2.2-1.9-3.7-2.5
	c-1.5-0.6-3.2-0.9-5.2-0.9C181.8,49.6,180,50,178.4,50.7z M212.2,86.5h8.5V18.7h-8.5V86.5z M266.1,86.2l0,0.3h-7.6l0-0.2
	c-0.2-1.9-0.3-3.9-0.3-5.9c-1.7,2.5-3.8,4.4-6.1,5.5c-2.5,1.1-5.3,1.7-8.6,1.7c-2,0-3.9-0.3-5.7-0.8c-1.8-0.5-3.4-1.4-4.8-2.4
	c-1.4-1.1-2.4-2.4-3.2-4c-0.8-1.6-1.2-3.5-1.2-5.6c0-2.8,0.6-5.1,1.9-7c1.2-1.9,2.9-3.4,5.1-4.6c2.1-1.2,4.6-2,7.5-2.5
	c2.8-0.5,5.9-0.8,9.1-0.8h5.6v-1.5c0-1-0.2-2.1-0.6-3.1c-0.4-1-1-2-1.8-2.8c-0.8-0.8-1.8-1.5-3-2c-1.2-0.5-2.7-0.7-4.4-0.7
	c-1.5,0-2.9,0.1-4,0.4c-1.1,0.3-2.2,0.7-3.1,1.1c-0.9,0.4-1.8,0.9-2.5,1.5c-0.8,0.6-1.5,1.2-2.2,1.7l-0.2,0.1l-5.1-5.3L231,49
	c2.3-2.1,4.9-3.7,7.9-4.7c3-1,6-1.6,9-1.6c3.1,0,5.8,0.4,8,1.2c2.2,0.8,4.1,1.8,5.6,3.2c1.4,1.3,2.5,2.9,3.2,4.6
	c0.7,1.7,1,3.5,1,5.4v21.5c0,1.5,0,2.9,0.1,4.1C265.9,83.9,266,85.1,266.1,86.2z M251.5,79.5c1.5-0.7,2.7-1.7,3.7-2.8
	c0.9-1.2,1.6-2.5,2-3.9c0.4-1.4,0.6-2.9,0.6-4.2v-2.4h-4c-1.9,0-3.8,0.1-5.8,0.3c-2,0.2-3.8,0.6-5.4,1.2c-1.6,0.6-2.9,1.4-3.9,2.4
	c-1,1-1.5,2.3-1.5,3.9c0,2.4,0.8,4,2.3,5c1.6,1,3.8,1.6,6.5,1.6C248.1,80.6,250,80.3,251.5,79.5z M295,79.3c-1,0.2-2,0.3-2.9,0.3
	c-1.5,0-2.6-0.3-3.4-0.8c-0.8-0.5-1.3-1.2-1.7-2.1c-0.4-0.9-0.6-1.9-0.6-3c-0.1-1.1-0.1-2.3-0.1-3.5V51.2h11.5v-7.4h-11.5V31.9h-8.5
	v11.8h-9.3v7.4h9.3v21.7c0,1.7,0.1,3.5,0.2,5.1c0.1,1.7,0.6,3.3,1.5,4.7c0.8,1.4,2.1,2.6,3.8,3.4c1.7,0.9,4.2,1.3,7.3,1.3
	c0.8,0,2-0.1,3.5-0.3c1.5-0.2,2.8-0.6,3.8-1.1L298,86v-7.9l-0.4,0.2C296.9,78.8,296,79.1,295,79.3z M310.2,22.8
	c-1.7,0-3.1,0.6-4.3,1.8c-1.2,1.2-1.8,2.7-1.8,4.3c0,1.7,0.6,3.1,1.8,4.3c1.2,1.2,2.7,1.8,4.3,1.8c1.7,0,3.1-0.6,4.3-1.8
	s1.8-2.7,1.8-4.3c0-1.7-0.6-3.1-1.8-4.3C313.4,23.4,311.9,22.8,310.2,22.8z M306,86.5h8.5V43.8H306V86.5z M366.1,56.4
	c1.2,2.7,1.8,5.6,1.8,8.7c0,3.1-0.6,6.1-1.8,8.8c-1.2,2.7-2.8,5.1-4.8,7.1c-2,2-4.5,3.6-7.2,4.8c-2.7,1.2-5.7,1.8-8.9,1.8
	s-6.2-0.6-8.9-1.8c-2.7-1.2-5.2-2.8-7.2-4.8c-2-2-3.7-4.4-4.8-7.1c-1.2-2.7-1.8-5.7-1.8-8.8c0-3.1,0.6-6,1.8-8.7
	c1.2-2.7,2.8-5.1,4.8-7.1s4.5-3.7,7.2-4.8c2.7-1.2,5.7-1.8,8.9-1.8s6.2,0.6,8.9,1.8c2.7,1.2,5.2,2.8,7.2,4.8
	C363.3,51.3,364.9,53.7,366.1,56.4z M350.8,78.5c1.7-0.7,3.1-1.7,4.3-3c1.2-1.2,2.1-2.8,2.7-4.5c0.6-1.8,1-3.7,1-5.8
	c0-2.1-0.3-4.1-1-5.8c-0.6-1.8-1.5-3.3-2.7-4.5c-1.2-1.2-2.6-2.2-4.3-3c-1.7-0.7-3.6-1.1-5.7-1.1c-2.1,0-4,0.4-5.7,1.1
	c-1.7,0.7-3.1,1.7-4.3,3c-1.2,1.2-2.1,2.8-2.7,4.5c-0.6,1.8-1,3.7-1,5.8c0,2.1,0.3,4.1,1,5.8c0.6,1.8,1.5,3.3,2.7,4.5
	c1.2,1.2,2.6,2.2,4.3,3c1.7,0.7,3.6,1.1,5.7,1.1C347.2,79.5,349.1,79.2,350.8,78.5z M408.4,46.6c-1.4-1.3-3.1-2.3-5-2.9
	c-1.9-0.6-3.9-0.9-5.9-0.9c-3.3,0-6.2,0.7-8.8,2.1c-2.3,1.3-4,3-5.1,5v-6h-8.5v42.7h8.5v-22c0-2.4,0.3-4.5,0.9-6.2
	c0.6-1.7,1.4-3.2,2.4-4.3c1-1.1,2.3-2,3.6-2.5c1.4-0.5,2.9-0.8,4.5-0.8c1.2,0,2.4,0.2,3.5,0.6c1.1,0.4,2.1,1,3,1.8
	c0.9,0.8,1.6,1.9,2.1,3.3c0.5,1.4,0.8,3,0.8,4.9v25.2h8.5V59.1c0-2.8-0.4-5.3-1.3-7.3C410.9,49.6,409.8,47.9,408.4,46.6z
	 M457.8,86.2l0,0.3h-7.6l0-0.2c-0.2-1.9-0.3-3.9-0.3-5.9c-1.7,2.5-3.8,4.4-6.1,5.5c-2.5,1.1-5.3,1.7-8.6,1.7c-2,0-3.9-0.3-5.7-0.8
	c-1.8-0.5-3.4-1.4-4.8-2.4c-1.4-1.1-2.4-2.4-3.2-4c-0.8-1.6-1.2-3.5-1.2-5.6c0-2.8,0.6-5.1,1.9-7c1.2-1.9,2.9-3.4,5.1-4.6
	c2.1-1.2,4.6-2,7.5-2.5c2.8-0.5,5.9-0.8,9.1-0.8h5.6v-1.5c0-1-0.2-2.1-0.6-3.1c-0.4-1-1-2-1.8-2.8c-0.8-0.8-1.8-1.5-3-2
	c-1.2-0.5-2.7-0.7-4.4-0.7c-1.5,0-2.9,0.1-4,0.4c-1.1,0.3-2.2,0.7-3.1,1.1c-0.9,0.4-1.8,0.9-2.5,1.5c-0.8,0.6-1.5,1.2-2.2,1.7
	l-0.2,0.1l-5.1-5.3l0.2-0.2c2.3-2.1,4.9-3.7,7.9-4.7c3-1,6-1.6,9-1.6c3.1,0,5.8,0.4,8,1.2c2.2,0.8,4.1,1.8,5.6,3.2
	c1.4,1.3,2.5,2.9,3.2,4.6c0.7,1.7,1,3.5,1,5.4v21.5c0,1.5,0,2.9,0.1,4.1C457.6,83.9,457.7,85.1,457.8,86.2z M443.2,79.5
	c1.5-0.7,2.7-1.7,3.7-2.8c0.9-1.2,1.6-2.5,2-3.9c0.4-1.4,0.6-2.9,0.6-4.2v-2.4h-4c-1.9,0-3.8,0.1-5.8,0.3c-2,0.2-3.8,0.6-5.4,1.2
	c-1.6,0.6-2.9,1.4-3.9,2.4c-1,1-1.5,2.3-1.5,3.9c0,2.4,0.8,4,2.3,5c1.6,1,3.8,1.6,6.5,1.6C439.8,80.6,441.7,80.3,443.2,79.5z
	 M467,86.5h8.5V18.7H467V86.5z M541.1,48.2c0.4,2.3,0.6,4.5,0.6,6.5c0,4-0.8,8-2.2,11.8c-1.5,3.8-3.7,7.2-6.6,10.1
	c-2.9,2.9-6.6,5.3-10.9,7.1c-4.3,1.8-9.4,2.7-15,2.7h-20.8V22.9h22.2c4.5,0,8.4,0.5,11.8,1.5c3.4,1,6.3,2.4,8.8,4.1
	c2.5,1.7,4.6,3.7,6.2,5.9c1.6,2.2,3,4.5,3.9,6.8C540,43.6,540.7,45.9,541.1,48.2z M495.2,77.9h10.5c3.6,0,7-0.5,10.2-1.5
	c3.2-1,6-2.4,8.4-4.4c2.4-1.9,4.3-4.4,5.7-7.3s2.1-6.3,2.1-10.2c0-2-0.3-4.3-1-7c-0.6-2.7-1.9-5.2-3.7-7.6c-1.8-2.4-4.3-4.4-7.4-6.1
	c-3.2-1.7-7.3-2.5-12.3-2.5h-12.6V77.9z M595.6,68.7c0,2.9-0.6,5.4-1.8,7.6c-1.2,2.2-2.8,4.1-4.8,5.6c-2,1.5-4.4,2.6-7.1,3.4
	c-2.7,0.8-5.6,1.2-8.7,1.2h-21.9V22.9h22.1c2.7,0,5.3,0.3,7.7,1c2.4,0.7,4.4,1.6,6.1,2.9c1.7,1.3,3.1,3,4.1,5c1,2,1.5,4.4,1.5,7.1
	c0,3.7-1,6.7-3.1,9c-1.9,2.1-4.3,3.8-7.3,4.9c1.7,0.2,3.2,0.7,4.7,1.4c1.7,0.9,3.2,2,4.4,3.4c1.2,1.4,2.2,3.1,2.9,4.9
	C595.2,64.5,595.6,66.5,595.6,68.7z M583.2,39.9c0-2.4-0.8-4.5-2.3-6.3c-1.5-1.8-4-2.7-7.4-2.7h-13.2v18.2h11.4
	c1.6,0,3.1-0.2,4.5-0.5c1.4-0.3,2.6-0.9,3.6-1.6c1-0.7,1.9-1.7,2.5-2.9C582.9,43,583.2,41.6,583.2,39.9z M560.3,78.5h12.3
	c1.3,0,2.7-0.1,4.3-0.4c1.5-0.3,3-0.8,4.3-1.6c1.3-0.8,2.5-1.8,3.4-3.2c0.9-1.3,1.4-3.1,1.4-5.3c0-3.6-1.2-6.4-3.6-8.2
	c-2.4-1.8-5.7-2.8-9.7-2.8h-12.4V78.5z"/>
<path style="fill:#068643;" d="M95.3,80C95,87,73.8,92.6,47.7,92.6C21.3,92.6,0,86.9,0,79.9h0v27.4h0c0,7,21.3,12.7,47.7,12.7
	s47.7-5.7,47.7-12.7c0-0.1,0-0.1,0-0.2V80z M95.3,46.4C95,53.4,73.8,59,47.7,59C21.3,59,0,53.3,0,46.3h0v27.4h0
	c0,7,21.3,12.7,47.7,12.7s47.7-5.7,47.7-12.7c0-0.1,0-0.1,0-0.2V46.4z M95.3,12.8c0-0.1,0-0.1,0-0.2C95.3,5.7,74,0,47.7,0
	S0,5.7,0,12.7h0v27.4h0c0,7,21.3,12.7,47.7,12.7s47.7-5.7,47.7-12.7c0-0.1,0-0.1,0-0.2V12.8z"/>
</svg>
